<svg xmlns="http://www.w3.org/2000/svg" xmlns:xlink="http://www.w3.org/1999/xlink" width="27cm" height="10cm" viewBox="220 135 524 199"><g id="Background"><rect width="134.923" height="196.302" x="456.332" y="136.698" fill="#fff" fill-opacity="1" stroke="#646464" stroke-linejoin="round" stroke-opacity="1" stroke-width="2" rx="8" ry="8"/><g><rect width="80" height="36" x="221.09" y="214.954" fill="#fff" fill-opacity="1" stroke="#5a9fd4" stroke-linejoin="round" stroke-opacity="1" stroke-width="2" rx="10" ry="10"/><text x="261.09" y="237.604" fill="#646464" fill-opacity="1" stroke="none" font-family="Lato" font-size="12.8" font-style="normal" font-weight="500" text-anchor="middle"><tspan x="261.09" y="237.604">Python</tspan></text></g><g><rect width="81.6" height="36" x="338" y="216.562" fill="#fff" fill-opacity="1" stroke="#5a9fd4" stroke-linejoin="round" stroke-opacity="1" stroke-width="2" rx="10" ry="10"/><text x="378.8" y="239.212" fill="#646464" fill-opacity="1" stroke="none" font-family="Lato" font-size="12.8" font-style="normal" font-weight="500" text-anchor="middle"><tspan x="378.8" y="239.212">PyGObject</tspan></text></g><g><rect width="100.6" height="36" x="473.126" y="147.249" fill="#fff" fill-opacity="1" stroke="#5a9fd4" stroke-linejoin="round" stroke-opacity="1" stroke-width="2" rx="10" ry="10"/><text x="523.426" y="169.899" fill="#646464" fill-opacity="1" stroke="none" font-family="Lato" font-size="12.8" font-style="normal" font-weight="500" text-anchor="middle"><tspan x="523.426" y="169.899">libgirepository</tspan></text></g><g><rect width="80" height="36" x="483.752" y="192.25" fill="#fff" fill-opacity="1" stroke="#5a9fd4" stroke-linejoin="round" stroke-opacity="1" stroke-width="2" rx="10" ry="10"/><text x="523.752" y="214.9" fill="#646464" fill-opacity="1" stroke="none" font-family="Lato" font-size="12.8" font-style="normal" font-weight="500" text-anchor="middle"><tspan x="523.752" y="214.9">libglib</tspan></text></g><g><rect width="80" height="36" x="483.834" y="238.25" fill="#fff" fill-opacity="1" stroke="#5a9fd4" stroke-linejoin="round" stroke-opacity="1" stroke-width="2" rx="10" ry="10"/><text x="523.834" y="260.9" fill="#646464" fill-opacity="1" stroke="none" font-family="Lato" font-size="12.8" font-style="normal" font-weight="500" text-anchor="middle"><tspan x="523.834" y="260.9">libgobject</tspan></text></g><g><line x1="301.09" x2="330.289" y1="232.954" y2="233.558" fill="none" stroke="#646464" stroke-linejoin="round" stroke-opacity="1" stroke-width="2"/><polygon fill="#646464" fill-opacity="1" fill-rule="evenodd" stroke="#646464" stroke-opacity="1" stroke-width="2" points="334.788 233.651 328.727 236.527 330.289 233.558 328.851 230.528"/></g><g><line x1="419.6" x2="449.596" y1="234.562" y2="234.796" fill="none" stroke="#646464" stroke-opacity="1" stroke-width="2"/><polygon fill="#646464" fill-opacity="1" fill-rule="evenodd" stroke="#646464" stroke-opacity="1" stroke-width="2" points="454.096 234.831 448.073 237.784 449.596 234.796 448.12 231.784"/></g><g><path fill="none" stroke="#646464" stroke-opacity="1" stroke-width="2" d="M 591.256 234.848 C 615.096,234.848 615.096,200.938 632.302,200.938"/><polygon fill="#646464" fill-opacity="1" fill-rule="evenodd" stroke="#646464" stroke-opacity="1" stroke-width="2" points="636.802 200.938 630.802 203.938 632.302 200.938 630.802 197.938"/></g><g><path fill="none" stroke="#646464" stroke-opacity="1" stroke-width="2" d="M 591.256 234.848 C 615.096,234.848 615.096,270.234 631.594,270.234"/><polygon fill="#646464" fill-opacity="1" fill-rule="evenodd" stroke="#646464" stroke-opacity="1" stroke-width="2" points="636.094 270.234 630.094 273.234 631.594 270.234 630.094 267.234"/></g><g><rect width="80" height="36" x="484" y="285.9" fill="#fff" fill-opacity="1" stroke="#5a9fd4" stroke-opacity="1" stroke-width="2" rx="10" ry="10"/><text x="524" y="308.55" fill="#646464" fill-opacity="1" stroke="none" font-family="Lato" font-size="12.8" font-style="normal" font-weight="500" text-anchor="middle"><tspan x="524" y="308.55">libffi</tspan></text></g><g><rect width="104.05" height="36" x="639.038" y="182.938" fill="#fff" fill-opacity="1" stroke="#5a9fd4" stroke-opacity="1" stroke-width="2" rx="10" ry="10"/><text x="691.063" y="205.588" fill="#646464" fill-opacity="1" stroke="none" font-family="Lato" font-size="12.8" font-style="normal" font-weight="500" text-anchor="middle"><tspan x="691.063" y="205.588">Gtk-3.0.typelib</tspan></text></g><g><rect width="80" height="36" x="638.33" y="252.234" fill="#fff" fill-opacity="1" stroke="#5a9fd4" stroke-opacity="1" stroke-width="2" rx="10" ry="10"/><text x="678.33" y="274.884" fill="#646464" fill-opacity="1" stroke="none" font-family="Lato" font-size="12.8" font-style="normal" font-weight="500" text-anchor="middle"><tspan x="678.33" y="274.884">libgtk-3.so</tspan></text></g></g></svg>